<svg width="492" height="492" viewBox="0 0 492 492" fill="none" xmlns="http://www.w3.org/2000/svg">
<g clip-path="url(#clip0_22_367)">
<path d="M424.656 191.417C424.698 191.333 424.74 191.249 424.938 191.099C427.217 188.736 429.464 186.34 431.789 184.022C433.11 182.704 434.559 181.514 435.939 180.258C435.939 180.258 435.942 180.271 436.116 180.25C436.441 180.004 436.766 179.758 437.255 179.489C442.856 175.576 448.913 172.562 455.673 170.352C454.005 169.22 452.631 168.175 451.154 167.304C443.471 162.774 435.845 158.14 428.043 153.823C415.898 147.102 403.342 141.197 390.301 136.433C381.898 133.363 373.32 130.775 364.662 127.902C364.55 127.921 364.438 127.941 364.168 127.881L364.163 127.879C363.791 127.738 363.418 127.597 362.927 127.398C362.884 127.409 362.841 127.42 362.706 127.383C362.706 127.383 362.605 127.4 362.477 127.246C356.554 125.744 350.651 124.16 344.702 122.771C341.183 121.949 337.588 121.454 334.034 120.775C331.585 120.307 329.161 119.695 326.703 119.294C324.234 118.891 321.734 118.684 319.251 118.364C317.26 118.107 315.274 117.81 313.098 117.443L300.829 116.286L300.715 116.654C300.98 116.904 301.253 117.146 301.508 117.406C303.753 119.696 306.019 121.966 308.227 124.29C309.259 125.377 310.179 126.57 311.17 127.895C311.377 128.247 311.584 128.599 311.801 129.126L311.804 129.132C313.222 131.543 314.64 133.955 316.119 136.536C317.137 139.085 318.155 141.634 319.145 144.35C319.233 144.551 319.321 144.753 319.399 145.121C319.465 145.203 319.531 145.286 319.527 145.479C319.564 145.556 319.6 145.633 319.635 145.883C319.706 145.966 319.777 146.049 319.799 146.126C319.799 146.126 319.787 146.175 319.784 146.398C320.233 148.249 320.683 150.101 321.044 152.054C321.072 152.137 321.1 152.219 321.105 152.529C321.29 154.883 321.723 157.249 321.604 159.588C321.383 163.944 320.839 168.284 320.345 172.807L320.344 172.812C319.672 175.206 319 177.6 318.301 180.038C318.301 180.038 318.333 180.078 318.195 180.17C318.172 180.276 318.148 180.382 318.063 180.559C318.063 180.559 318.081 180.653 317.949 180.788L317.948 180.79C316.303 184.057 314.657 187.324 312.857 190.681C310.378 193.855 308.064 197.178 305.371 200.158C302.871 202.925 299.967 205.327 297.079 207.946C296.292 208.654 295.505 209.363 294.572 210.138C294.515 210.224 294.457 210.31 294.386 210.394C294.386 210.394 294.374 210.387 294.218 210.441L294.215 210.444C290.063 214.793 285.911 219.142 281.601 223.583C279.934 225.644 278.215 227.666 276.617 229.779C275.459 231.31 274.461 232.961 273.238 234.601C273.034 234.897 272.829 235.193 272.491 235.561C272.46 235.654 272.429 235.747 272.255 235.926C272.028 236.313 271.801 236.699 271.437 237.187L271.437 237.188C270.988 237.92 270.539 238.653 269.943 239.473L269.941 239.476C267.595 243.585 265.249 247.694 262.783 251.922C262.151 253.2 261.454 254.451 260.899 255.762C258.848 260.611 256.844 265.48 254.68 270.436C254.583 270.849 254.511 271.269 254.387 271.673C253.214 275.477 252.032 279.279 250.763 283.245C250.306 285.133 249.849 287.02 249.315 289.069C249.315 289.188 249.315 289.306 249.229 289.594C247.569 296.286 246.499 303.082 245.751 309.928C245.34 313.688 245.08 317.464 244.699 321.294C244.695 321.33 244.681 321.367 244.688 321.401C244.702 321.468 244.728 321.533 244.705 321.835C244.641 323.898 244.576 325.962 244.46 328.232C244.479 330.184 244.498 332.137 244.486 334.326C244.571 336.036 244.657 337.745 244.693 339.584C244.716 339.868 244.738 340.152 244.725 340.671L245.905 357.629C248.26 350.362 250.886 343.275 254.018 336.37C257.893 327.83 262.508 319.713 267.725 311.896C267.725 311.896 267.751 311.877 267.87 311.77C269.058 310.08 270.246 308.39 271.574 306.642C271.679 306.474 271.784 306.307 272.02 306.07C272.094 305.945 272.168 305.819 272.374 305.636C272.469 305.475 272.564 305.315 272.798 305.082C272.935 304.864 273.072 304.645 273.187 304.421C273.187 304.421 273.191 304.444 273.321 304.394C273.361 304.313 273.401 304.233 273.564 304.108C273.601 304.031 273.637 303.954 273.816 303.803C274.032 303.5 274.247 303.196 274.44 302.879C274.44 302.879 274.456 302.9 274.609 302.826L274.61 302.824C275.334 301.918 276.059 301.011 276.934 300.039C277.292 299.558 277.649 299.076 278.163 298.544C278.375 298.301 278.586 298.057 278.949 297.754C279.221 297.42 279.493 297.087 279.897 296.698C279.973 296.579 280.05 296.46 280.084 296.327C280.084 296.327 280.095 296.369 280.228 296.322C280.277 296.243 280.325 296.165 280.335 296.075C280.335 296.075 280.348 296.113 280.48 296.059C280.524 295.977 280.567 295.895 280.572 295.805C280.572 295.805 280.581 295.843 280.718 295.798C280.766 295.718 280.814 295.638 280.831 295.553C280.831 295.553 280.845 295.581 280.991 295.517C281.186 295.269 281.381 295.021 281.555 294.758C281.555 294.758 281.564 294.783 281.697 294.743C281.742 294.666 281.786 294.589 281.99 294.453L281.991 294.452C283.16 293.239 284.33 292.027 285.59 290.791C285.773 290.617 285.953 290.44 286.14 290.27C289.204 287.471 292.248 284.65 295.345 281.888C296.521 280.84 297.821 279.931 299.225 278.911C304.071 275.65 308.855 272.294 313.785 269.166C316.54 267.417 319.536 266.047 322.6 264.548C323.164 264.197 323.727 263.847 324.449 263.531C324.612 263.504 324.786 263.503 324.938 263.445L326.186 262.969C331.879 260.8 337.583 258.626 343.463 256.454L343.472 256.452C349.996 255.075 356.519 253.698 363.258 252.36C365.142 252.187 367.023 251.945 368.911 251.855C372.828 251.669 376.749 251.435 380.666 251.463C384.28 251.488 387.891 251.829 391.711 252.092L409.824 255.137L409.823 255.132C409.297 250.919 408.752 246.556 408.243 241.981C408.213 241.627 408.182 241.274 408.196 240.696V240.693C408.18 238.654 408.165 236.615 408.211 234.35C408.446 227.904 409.702 221.64 411.574 215.484C411.717 215.016 411.713 214.502 411.83 213.923C411.83 213.923 411.825 213.822 411.984 213.736C412.11 213.413 412.236 213.091 412.34 212.756C412.34 212.756 412.341 212.781 412.494 212.686C412.539 212.456 412.584 212.226 412.595 211.997C412.595 211.997 412.608 212.028 412.755 211.949C412.768 211.79 412.781 211.632 412.83 211.37C412.83 211.37 412.83 211.259 412.966 211.207L412.967 211.205C413 211.124 413.033 211.042 413.111 210.874C413.111 210.874 413.095 210.777 413.242 210.683C413.277 210.519 413.311 210.356 413.442 210.057C413.586 209.706 413.73 209.356 414.011 208.886C414.412 208.005 414.742 207.084 415.224 206.25C417.454 202.394 419.726 198.561 422.106 194.67C422.138 194.59 422.171 194.51 422.335 194.362C422.397 194.232 422.46 194.102 422.495 193.97C422.495 193.97 422.505 193.997 422.632 193.95C422.668 193.87 422.704 193.789 422.722 193.698C422.722 193.698 422.728 193.718 422.854 193.674C422.891 193.596 422.927 193.518 422.974 193.442C422.974 193.442 422.969 193.433 423.101 193.377C423.166 193.253 423.231 193.13 423.416 192.948C423.449 192.869 423.482 192.791 423.64 192.665C423.676 192.587 423.712 192.508 423.883 192.379C423.986 192.222 424.089 192.065 424.29 191.831C424.29 191.831 424.307 191.736 424.29 191.701C424.28 191.697 424.282 191.691 424.282 191.691C424.285 191.693 424.288 191.696 424.29 191.701C424.303 191.707 424.336 191.708 424.417 191.685C424.46 191.6 424.503 191.515 424.514 191.426C424.514 191.426 424.518 191.458 424.656 191.417Z" fill="white"/>
<path d="M174.659 196.582C174.582 196.53 174.506 196.478 174.435 196.461C174.435 196.461 174.466 196.443 174.466 196.271C174.199 195.991 173.932 195.711 173.658 195.455C173.658 195.455 173.682 195.454 173.643 195.314C173.567 195.262 173.49 195.209 173.412 195.2C173.412 195.2 173.455 195.191 173.447 195.025C173.348 194.911 173.248 194.797 173.137 194.702C173.137 194.702 173.159 194.699 173.122 194.562C173.048 194.51 172.973 194.459 172.903 194.435C172.903 194.435 172.927 194.421 172.916 194.244C172.568 193.8 172.22 193.357 171.861 192.932C171.861 192.932 171.879 192.921 171.823 192.753C171.401 192.136 170.978 191.519 170.575 190.769C170.501 190.724 170.427 190.679 170.34 190.63C170.34 190.63 170.352 190.624 170.339 190.442C169.839 189.66 169.34 188.878 168.834 188.088C168.834 188.088 168.831 188.079 168.82 187.892C168.814 187.85 168.818 187.802 168.799 187.768C165.632 182.309 163.728 176.364 162.605 170.224C161.969 166.743 161.89 163.113 161.982 159.561C162.068 156.256 162.569 152.938 163.159 149.676C163.665 146.877 164.556 144.148 165.326 141.311C165.326 141.311 165.298 141.224 165.446 141.122C165.542 140.784 165.637 140.445 165.778 140.016C165.778 140.016 165.773 139.914 165.932 139.826C166.141 139.254 166.349 138.682 166.537 138.092C166.537 138.092 166.548 138.118 166.692 138.048C166.735 137.896 166.777 137.744 166.976 137.512C168.608 134.552 170.026 131.446 171.927 128.671C174.056 125.563 176.623 122.755 179.113 119.807C179.113 119.807 179.21 119.745 179.38 119.736C180.004 119.082 180.628 118.429 181.254 117.777C181.254 117.777 181.252 117.775 181.413 117.723C181.704 117.384 181.994 117.045 182.428 116.722C182.54 116.659 182.652 116.597 182.744 116.519C182.724 116.525 182.685 116.528 182.616 116.524C182.505 116.548 182.394 116.572 182.053 116.53C179.623 116.692 177.184 116.779 174.764 117.036C171.568 117.375 168.383 117.822 165.199 118.27C159.831 119.027 154.44 119.66 149.109 120.63C135.313 123.138 121.721 126.526 108.427 130.99C100.637 133.607 92.9676 136.589 85.2774 139.495C83.1737 140.29 81.1913 141.406 79.012 142.426C78.8946 142.515 78.7773 142.604 78.5028 142.647C77.8307 142.836 77.1112 142.927 76.4939 143.227C70.7453 146.029 64.99 148.819 59.2885 151.714C56.4631 153.149 53.7461 154.798 50.7945 156.349C50.0281 156.773 49.2456 157.17 48.4984 157.625C46.4438 158.876 44.4041 160.151 42.1801 161.422C41.8121 161.681 41.4442 161.94 41.0936 162.206C41.0936 162.206 41.0948 162.188 40.9305 162.189C40.8097 162.276 40.6889 162.364 40.5856 162.46C40.5856 162.46 40.5824 162.441 40.4455 162.48C40.3943 162.555 40.343 162.629 40.3272 162.704C40.3272 162.704 40.3232 162.668 40.1641 162.676C40.0467 162.773 39.9294 162.869 39.8269 162.972C39.8269 162.972 39.8227 162.957 39.6536 162.958C39.4464 163.124 39.2393 163.29 39.0551 163.465C39.0551 163.465 39.0577 163.441 38.9001 163.443C38.7836 163.539 38.667 163.635 38.5585 163.736C38.5585 163.736 38.5579 163.726 38.3929 163.725C38.2742 163.813 38.1555 163.902 37.9202 164.021C37.8386 164.06 37.7969 164.124 37.6255 164.223C37.4207 164.394 37.2158 164.565 37.0315 164.741C37.0315 164.741 37.0224 164.722 36.8539 164.723C36.6505 164.895 36.447 165.067 36.2661 165.243C36.2661 165.243 36.2556 165.223 36.0788 165.242C35.5494 165.585 35.0199 165.929 34.4979 166.273C34.4979 166.273 34.4963 166.266 34.3692 166.311C34.32 166.382 34.2708 166.453 34.24 166.525C34.24 166.525 34.2403 166.506 34.0754 166.504C33.9576 166.594 33.8397 166.685 33.7355 166.78C33.7355 166.78 33.7319 166.766 33.6005 166.811C33.552 166.884 33.5035 166.956 33.4784 167.029C33.4784 167.029 33.4765 167.006 33.3114 166.999C33.1925 167.093 33.0736 167.187 32.9714 167.286C32.9714 167.286 32.9687 167.269 32.8328 167.31C32.7823 167.384 32.7319 167.457 32.713 167.531C32.713 167.531 32.7094 167.5 32.5519 167.505C32.4363 167.602 32.3206 167.699 32.2109 167.798C32.2109 167.798 32.2103 167.792 32.048 167.817C31.7489 168.049 31.4497 168.282 31.0004 168.526C30.8977 168.627 30.7949 168.727 30.5572 168.848C30.5092 168.918 30.4612 168.989 30.4316 169.061C30.4316 169.061 30.4231 169.044 30.2547 169.042C30.0559 169.218 29.8571 169.393 29.6715 169.574C29.6715 169.574 29.667 169.561 29.4855 169.568L28.1865 170.525C30.5429 171.384 32.6329 172.146 34.8216 173.055C36.4873 173.849 38.1529 174.642 39.8262 175.418C39.8262 175.418 39.8081 175.425 39.8818 175.567C40.0326 175.608 40.1833 175.649 40.3331 175.672C40.3331 175.672 40.3163 175.678 40.3867 175.823C40.5377 175.867 40.6887 175.91 40.8404 175.928C40.8404 175.928 40.8159 175.93 40.8457 176.068C40.9295 176.107 41.0133 176.147 41.0993 176.176C41.0993 176.176 41.0887 176.179 41.1439 176.332C41.2985 176.365 41.453 176.398 41.6058 176.429C41.6058 176.429 41.6024 176.429 41.6799 176.564C41.8232 176.614 41.9665 176.663 42.1057 176.692C42.1057 176.692 42.0861 176.7 42.1505 176.856C42.3932 176.975 42.6359 177.093 42.906 177.328C42.9581 177.396 43.0271 177.43 43.1667 177.587C43.323 177.627 43.4794 177.667 43.6368 177.698C43.6368 177.698 43.6287 177.701 43.7003 177.843C43.8459 177.893 43.9914 177.943 44.1328 177.968C44.1328 177.968 44.1085 177.978 44.1756 178.128C44.4137 178.25 44.6518 178.372 44.9019 178.475C44.9019 178.475 44.8796 178.479 44.9418 178.64C47.0592 180.33 49.2332 181.955 51.2778 183.73C53.246 185.438 55.0854 187.295 57.0223 189.25L57.1004 189.329C58.7778 191.467 60.5656 193.529 62.1051 195.762C64.0897 198.641 65.8756 201.657 67.6988 204.743C67.7649 204.795 67.8311 204.847 67.9176 205.083C68.106 205.513 68.2944 205.944 68.3388 206.459L68.3393 206.46C69.3391 208.805 70.3389 211.149 71.3338 213.693C75.9996 227.423 76.6221 241.368 73.4322 255.583C73.9004 255.489 74.2286 255.444 74.5452 255.357C89.4208 251.264 104.518 250.513 119.79 252.334C130.796 253.646 141.486 256.265 151.704 260.542C157.684 263.045 163.457 266.041 169.445 268.941C183.472 276.898 195.702 287.062 206.087 299.366C210.322 304.384 214.048 309.832 218.049 315.261C220.053 318.624 222.155 321.932 224.032 325.364C225.913 328.801 227.664 332.317 229.299 335.878C230.948 339.471 232.491 343.121 233.885 346.819C235.25 350.44 236.369 354.154 237.596 357.827C238.145 350.41 238.602 342.989 238.85 335.561C239.187 325.485 238.395 315.459 237.052 305.479C236.581 301.979 235.92 298.504 235.393 294.974C235.409 294.9 235.384 294.849 235.336 294.661C235.316 294.611 235.296 294.561 235.295 294.35C235.215 294.098 235.135 293.846 235.077 293.413C235.06 293.355 235.042 293.297 235.042 293.03C233.497 285.056 231.404 277.218 228.407 269.675C226.012 263.646 223.2 257.783 220.545 251.684C220.503 251.649 220.46 251.614 220.438 251.509C220.426 251.454 220.392 251.424 220.319 251.242C220.145 250.936 219.972 250.63 219.774 250.15C218.746 248.309 217.79 246.423 216.674 244.637C214.92 241.83 213.06 239.091 211.228 236.157C211.063 235.959 210.898 235.762 210.673 235.394C210.267 234.858 209.861 234.322 209.443 233.809C209.443 233.809 209.465 233.795 209.442 233.614C208.938 232.985 208.434 232.356 207.932 231.623C207.932 231.623 207.883 231.531 207.895 231.373C207.739 231.244 207.584 231.115 207.419 231.009C207.419 231.009 207.442 230.998 207.42 230.828C207.171 230.541 206.922 230.254 206.66 229.997C206.66 229.997 206.684 229.976 206.664 229.806C206.414 229.523 206.164 229.24 205.901 228.785C205.649 228.506 205.397 228.227 205.109 227.824C205.039 227.778 204.969 227.732 204.886 227.515C204.633 227.234 204.381 226.953 204.115 226.691C204.115 226.691 204.138 226.689 204.097 226.555C204.021 226.506 203.945 226.458 203.871 226.432C203.871 226.432 203.892 226.422 203.87 226.25L203.869 226.248C203.531 225.884 203.193 225.519 202.841 225.172C202.841 225.172 202.863 225.168 202.826 225.033C202.75 224.984 202.675 224.935 202.6 224.914C202.6 224.914 202.627 224.907 202.608 224.73C202.265 224.36 201.922 223.991 201.517 223.46C200.644 222.405 199.84 221.282 198.884 220.308C195.676 217.035 192.426 213.803 189.177 210.57L188.481 209.878C188.26 209.659 187.917 209.562 187.592 209.284C187.519 209.241 187.446 209.199 187.335 209.033C187.262 208.99 187.19 208.947 187.08 208.78C187.007 208.738 186.935 208.696 186.796 208.496C186.394 208.207 185.992 207.918 185.58 207.648C185.58 207.648 185.601 207.647 185.559 207.516C185.481 207.471 185.404 207.427 185.322 207.403C185.322 207.403 185.339 207.39 185.275 207.231C184.533 206.604 183.791 205.977 183.033 205.373C183.033 205.373 183.056 205.357 182.993 205.198L182.985 205.19C181.144 203.382 179.303 201.574 177.447 199.782C177.447 199.782 177.468 199.779 177.431 199.646C177.354 199.601 177.278 199.557 177.196 199.53C177.196 199.53 177.215 199.525 177.177 199.392C177.101 199.346 177.025 199.299 176.945 199.274C176.945 199.274 176.964 199.262 176.902 199.102C176.245 198.389 175.587 197.676 174.919 196.984C174.919 196.984 174.942 196.981 174.901 196.846C174.824 196.797 174.748 196.747 174.669 196.727C174.669 196.727 174.698 196.722 174.659 196.582Z" fill="white"/>
<path d="M271.54 222.639C271.563 222.556 271.586 222.473 271.662 222.293C271.662 222.293 271.662 222.182 271.817 222.107C272.106 221.701 272.395 221.294 272.867 220.838C273.067 220.534 273.47 220.199 273.43 219.931C273.245 218.701 272.937 217.49 272.668 216.29C272.668 216.29 272.687 216.287 272.694 216.073C272.579 215.389 272.465 214.704 272.363 213.825C272.288 213.539 272.231 213.247 272.135 212.969C271.223 210.321 270.305 207.675 269.415 204.946C269.415 204.946 269.367 204.874 269.401 204.707C269.307 204.578 269.213 204.448 269.123 204.208C269.123 204.208 269.073 204.11 269.108 203.936C268.923 203.573 268.738 203.211 268.591 202.683C268.612 202.573 268.633 202.462 268.803 202.291C268.93 202.064 269.056 201.837 269.148 201.595C269.148 201.595 269.149 201.632 269.294 201.599C269.33 201.51 269.366 201.421 269.375 201.33C269.375 201.33 269.393 201.35 269.556 201.283C269.769 200.979 270.025 200.696 270.187 200.367C270.948 198.831 271.682 197.282 272.409 195.727C272.409 195.727 272.418 195.745 272.584 195.671L272.584 195.669C272.616 195.436 272.648 195.202 272.662 194.966C272.662 194.966 272.671 194.981 272.837 194.899C272.856 194.667 272.875 194.435 272.953 194.067C273.017 193.943 273.08 193.818 273.214 193.509C273.184 193.317 273.154 193.124 273.212 192.777L273.213 192.772C273.362 191.81 273.512 190.848 273.731 189.661V189.659C273.706 188.72 273.681 187.781 273.702 186.651C273.597 186.289 273.491 185.926 273.431 185.356L273.431 185.35C273.416 185.002 273.401 184.654 273.391 184.156C273.303 184.033 273.215 183.91 273.186 183.588C273.087 183.065 272.988 182.542 272.85 181.824C271.973 177.918 270.231 174.456 267.797 171.486L267.794 171.492C265.227 175.745 262.725 179.891 260.06 184.093C259.926 184.4 259.792 184.707 259.507 185.099L259.504 185.103C258.632 186.436 257.759 187.769 256.901 189.127C256.901 189.127 256.896 189.099 256.737 189.152C256.616 189.388 256.495 189.625 256.388 189.878C256.388 189.878 256.397 189.86 256.259 189.887C256.219 189.969 256.178 190.051 256.156 190.138C256.156 190.138 256.143 190.124 255.984 190.175C255.861 190.411 255.738 190.646 255.634 190.901C255.634 190.901 255.626 190.874 255.461 190.939C254.95 191.91 254.276 192.478 253.109 191.907C253.109 191.907 253.136 191.896 253.075 191.728C252.753 191.613 252.431 191.499 252.106 191.396C252.106 191.396 252.116 191.388 252.038 191.219C244.242 187.933 236.607 188.562 228.983 192.208C228.326 191.321 227.621 190.432 226.985 189.497C224.77 186.243 222.578 182.973 220.366 179.714C220.366 179.714 220.377 179.72 220.346 179.577C220.272 179.518 220.197 179.458 220.141 179.307C220.141 179.307 220.093 179.227 220.107 179.077C220.026 179.023 219.945 178.968 219.873 178.731L215.785 171.189C213.728 173.719 212.105 176.383 211.132 179.626L211.131 179.627C210.832 180.763 210.533 181.899 210.157 183.18C210.103 183.385 210.05 183.591 209.956 183.985C209.962 184.176 209.969 184.367 209.892 184.757C209.419 188.363 209.255 192.002 210.711 195.397C211.802 197.939 213.35 200.284 214.699 202.723C214.089 204.555 213.408 206.601 212.562 208.725C212.017 210.746 211.472 212.766 210.9 214.838C210.9 214.838 210.943 214.877 210.791 215.019C210.533 216.299 210.297 217.584 210.007 218.857C209.818 219.688 209.973 220.337 210.504 221.054C213.589 225.216 216.836 229.282 219.592 233.655C223.044 239.131 226.075 244.873 229.292 250.639C229.356 250.703 229.42 250.767 229.491 250.971C229.55 251.036 229.609 251.101 229.644 251.161C229.644 251.161 229.64 251.185 229.68 251.358C234.738 261.877 238.582 272.848 241.749 284.096C242.021 283.787 242.126 283.52 242.202 283.246C244.328 275.517 246.78 267.896 249.849 260.485C251.122 257.412 252.478 254.373 253.954 251.217C254.42 250.293 254.862 249.355 255.358 248.447C257.234 245.011 259.102 241.57 261.026 238.162C262.24 236.013 263.549 233.917 264.796 231.783C264.796 231.783 264.806 231.806 264.958 231.746C265.002 231.592 265.045 231.438 265.06 231.287C265.06 231.287 265.069 231.313 265.239 231.263L265.241 231.259C265.947 230.17 266.653 229.08 267.337 227.979C267.337 227.979 267.347 228.002 267.508 227.949C267.629 227.71 267.751 227.471 267.851 227.224C267.851 227.224 267.85 227.246 267.984 227.204C268.027 227.125 268.07 227.045 268.094 226.96C268.094 226.96 268.103 226.977 268.261 226.921C268.383 226.685 268.505 226.449 268.605 226.206C268.605 226.206 268.615 226.227 268.77 226.184C268.871 226.015 268.973 225.846 269.124 225.588C269.124 225.588 269.118 225.487 269.274 225.409C269.567 225 269.86 224.59 270.133 224.173C270.133 224.173 270.13 224.194 270.266 224.155C270.31 224.075 270.354 223.996 270.38 223.915C270.38 223.915 270.382 223.934 270.52 223.898C270.566 223.82 270.613 223.743 270.637 223.665C270.637 223.665 270.641 223.686 270.769 223.646C270.793 223.565 270.816 223.484 270.893 223.306C270.893 223.306 270.894 223.195 271.025 223.141C271.07 223.061 271.114 222.98 271.141 222.899C271.141 222.899 271.143 222.917 271.283 222.882C271.331 222.806 271.38 222.73 271.403 222.654C271.403 222.654 271.408 222.679 271.54 222.639Z" fill="white"/>
</g>
<defs>
<clipPath id="clip0_22_367">
<rect width="492" height="492" fill="white"/>
</clipPath>
</defs>
</svg>
